<svg width="237" height="135" viewBox="0 0 237 135" fill="none" xmlns="http://www.w3.org/2000/svg">
<g clip-path="url(#clip0_11_14)">
<path d="M118.484 78.3569C142.036 78.3569 161.128 60.8161 161.128 39.1784C161.128 17.5408 142.036 0 118.484 0C94.9324 0 75.84 17.5408 75.84 39.1784C75.84 60.8161 94.9324 78.3569 118.484 78.3569Z" fill="#4D4D4D"/>
<path d="M104.508 26.3388L90.515 39.1941L104.508 52.0494L108.425 48.4499L98.3508 39.1941L108.425 29.9383L104.508 26.3388ZM132.492 26.3388L128.575 29.9383L138.649 39.1941L128.575 48.4499L132.492 52.0494L146.485 39.1941L132.492 26.3388ZM115.592 57.1756L110.227 55.7091L121.406 21.2105L126.771 22.6771L115.592 57.1756Z" fill="white"/>
<path d="M237 84.6131H0V85.5027H237V84.6131Z" fill="#4D4D4D"/>
<path d="M0 109.902L0.113471 110.916L1.56796 110.807C3.03792 110.717 4.16747 110.258 4.95145 109.419C5.73543 108.585 6.12742 107.457 6.12742 106.031V91.9429H4.93597V105.979C4.93597 107.083 4.63166 107.974 4.02305 108.661C3.41443 109.343 2.56341 109.722 1.48028 109.793L0 109.902ZM13.5237 109.116C14.8286 110.352 16.7627 110.968 19.3158 110.968C21.8534 110.968 23.7824 110.352 25.0977 109.116C26.4129 107.879 27.0731 106.05 27.0731 103.628V91.9429H25.8507V103.818C25.8507 105.827 25.2988 107.339 24.1951 108.353C23.0913 109.367 21.4666 109.874 19.3158 109.874C14.942 109.874 12.75 107.855 12.75 103.818V91.9429H11.5585V103.628C11.5585 106.05 12.2136 107.879 13.5237 109.116ZM47.0285 91.9429V108.836L33.4893 91.9429H32.4733V110.755H33.608V93.8336L47.1729 110.755H48.1632V91.9429H47.0285ZM69.4235 110.755H70.7026L61.8983 91.9429H60.7378L51.9387 110.755H53.1868L55.6265 105.552H66.9839L69.4235 110.755ZM56.1216 104.486L61.3206 93.3834L66.4887 104.486H56.1216ZM77.2684 110.755H78.4857V92.9569H86.0108V91.9429H69.7433V92.9569H77.2684V110.755ZM94.2323 110.755H95.4496V92.9569H102.975V91.9429H86.7072V92.9569H94.2323V110.755ZM107.333 91.9429H106.111V110.755H107.333V101.709H121.099V100.695H107.333V91.9429ZM121.13 91.9429V110.755H122.347V91.9429H121.13ZM127.928 110.755H140.24V109.713H129.145V101.733H139.662V100.695H129.145V92.9806H140.24V91.9429H127.928V110.755ZM144.66 110.755H145.846V101.709H156.1V100.695H145.846V92.9806H156.683V91.9429H144.66V110.755ZM175.797 110.755L172.078 104.296C171.728 103.728 171.367 103.273 170.99 102.936C170.614 102.6 170.18 102.358 169.696 102.216C171.418 102.036 172.749 101.515 173.693 100.643C174.632 99.771 175.101 98.6053 175.101 97.1459C175.101 95.4352 174.523 94.1416 173.373 93.2602C172.218 92.3788 170.588 91.9429 168.478 91.9429H160.577V110.755H161.768V102.429H166.503C167.684 102.429 168.602 102.591 169.262 102.908C169.917 103.23 170.5 103.832 171.006 104.723L174.461 110.755H175.797ZM168.504 101.363H161.794V92.9806H168.504C170.304 92.9806 171.64 93.3218 172.512 94.0089C173.383 94.696 173.822 95.729 173.822 97.1174C173.822 99.9464 172.047 101.363 168.504 101.363ZM183.451 109.807C184.797 110.58 186.381 110.968 188.202 110.968C190.038 110.968 191.632 110.58 192.978 109.807C194.324 109.035 195.361 107.921 196.088 106.471C196.81 105.021 197.176 103.311 197.176 101.335C197.176 99.3588 196.815 97.6529 196.103 96.2124C195.386 94.7718 194.35 93.663 192.993 92.8859C191.637 92.1135 190.038 91.7296 188.202 91.7296C186.36 91.7296 184.767 92.1135 183.42 92.8859C182.074 93.663 181.043 94.7718 180.326 96.2218C179.609 97.6718 179.253 99.3872 179.253 101.363C179.253 103.32 179.614 105.021 180.341 106.471C181.068 107.921 182.105 109.035 183.451 109.807ZM193.865 107.632C192.529 109.125 190.641 109.874 188.202 109.874C185.777 109.874 183.9 109.125 182.564 107.632C181.228 106.14 180.558 104.041 180.558 101.335C180.558 98.629 181.228 96.5346 182.564 95.0514C183.9 93.5635 185.777 92.8195 188.202 92.8195C190.657 92.8195 192.55 93.5635 193.88 95.0514C195.206 96.5346 195.866 98.629 195.866 101.335C195.866 104.041 195.201 106.14 193.865 107.632ZM216.461 91.9429V108.836L202.927 91.9429H201.911V110.755H203.046V93.8336L216.611 110.755H217.596V91.9429H216.461ZM228.257 110.755H229.474V92.9569H236.999V91.9429H220.732V92.9569H228.257V110.755Z" fill="#F1E7E7"/>
<path d="M237 117.198H0V118.088H237V117.198Z" fill="#4D4D4D"/>
</g>
<defs>
<clipPath id="clip0_11_14">
<rect width="237" height="135" fill="white"/>
</clipPath>
</defs>
</svg>
